<svg style="position: absolute; width: 0; height: 0; overflow: hidden;" aria-hidden="true" version="1.1" xmlns="http://www.w3.org/2000/svg" xmlns:xlink="http://www.w3.org/1999/xlink">
    <defs>
        <symbol id="person" viewBox="0 0 18 24" fill="none">
            <path fill="currentColor" d="M9 12c1.6575 0 3-1.3425 3-3s-1.3425-3-3-3-3 1.3425-3 3 1.3425 3 3 3zM9 13.5c-2.0025 0-6 1.005-6 3v0.75C3 17.6625 3.3375 18 3.75 18h10.5c0.4125 0 0.75-0.3375 0.75-0.75V16.5c0-1.995-3.9975-3-6-3z" />
        </symbol>
        <symbol id="phone" viewBox="0 0 13 13" fill="none">
            <path fill="currentColor" d="M11.7263 8.8651 9.8881 8.6553C9.4467 8.6046 9.0125 8.7566 8.7013 9.0678l-1.3316 1.3315c-2.048-1.0421-3.7269-2.7138-4.769-4.769l1.3388-1.3389C4.2507 3.9803 4.4026 3.5461 4.352 3.1046L4.1421 1.2809C4.0553 0.55 3.4401 0 2.702 0H1.45C0.6323 0-0.048 0.6803 27e-4 1.498 0.3862 7.6783 5.3289 12.6138 11.5019 12.9973c0.8178 0.0507 1.498-0.6296 1.498-1.4473v-1.252c73e-4-0.7309-0.5427-1.346-1.2736-1.4329z" />
        </symbol>
        <symbol id="email" viewBox="0 0 18 24" fill="none">
            <path fill="currentColor" d="M15 6H3C2.175 6 1.5075 6.675 1.5075 7.5l-75e-4 9C1.5 17.325 2.175 18 3 18h12c0.825 0 1.5-0.675 1.5-1.5v-9C16.5 6.675 15.825 6 15 6zM14.7 9.1875l-5.3025 3.315c-0.24 0.15-0.555 0.15-0.795 0L3.3 9.1875C3.1125 9.0675 3 8.865 3 8.6475 3 8.145 3.5475 7.845 3.975 8.1075L9 11.25l5.025-3.1425C14.4525 7.845 15 8.145 15 8.6475c0 0.2175-0.1125 0.42-0.3 0.54z" />
        </symbol>
    </defs>
</svg>
<svg style="position: absolute; width: 0; height: 0; overflow: hidden;" aria-hidden="true" version="1.1" xmlns="http://www.w3.org/2000/svg" xmlns:xlink="http://www.w3.org/1999/xlink">
    <defs>
        <symbol id="subscribe" viewBox="0 0 24 20" fill="none">
            <path fill="currentColor" d="M24 0 0 11.25l7.6699 2.3672L19.5 4.375 10.5017 14.4913l73e-4 23e-4-9e-3-23e-4V20l4.3013-4.1817 5.4488 1.6817z" />
        </symbol>
    </defs>
</svg>